<mxfile host="app.diagrams.net" agent="Mozilla/5.0 (Windows NT 10.0; Win64; x64) AppleWebKit/537.36 (KHTML, like Gecko) Chrome/127.0.0.0 Safari/537.36" version="24.7.7">
  <diagram id="R2lEEEUBdFMjLlhIrx00" name="Page-1">
    <mxGraphModel dx="2607" dy="4815" grid="1" gridSize="10" guides="1" tooltips="1" connect="1" arrows="1" fold="1" page="1" pageScale="1" pageWidth="2339" pageHeight="3300" math="0" shadow="0" extFonts="Permanent Marker^https://fonts.googleapis.com/css?family=Permanent+Marker">
      <root>
        <mxCell id="0" />
        <mxCell id="1" parent="0" />
        <mxCell id="C-vyLk0tnHw3VtMMgP7b-23" value="Жанры" style="shape=table;startSize=30;container=1;collapsible=1;childLayout=tableLayout;fixedRows=1;rowLines=0;fontStyle=1;align=center;resizeLast=1;" parent="1" vertex="1">
          <mxGeometry x="250" y="450" width="200" height="90" as="geometry" />
        </mxCell>
        <mxCell id="C-vyLk0tnHw3VtMMgP7b-24" value="" style="shape=partialRectangle;collapsible=0;dropTarget=0;pointerEvents=0;fillColor=none;points=[[0,0.5],[1,0.5]];portConstraint=eastwest;top=0;left=0;right=0;bottom=1;" parent="C-vyLk0tnHw3VtMMgP7b-23" vertex="1">
          <mxGeometry y="30" width="200" height="30" as="geometry" />
        </mxCell>
        <mxCell id="C-vyLk0tnHw3VtMMgP7b-25" value="1" style="shape=partialRectangle;overflow=hidden;connectable=0;fillColor=none;top=0;left=0;bottom=0;right=0;fontStyle=1;" parent="C-vyLk0tnHw3VtMMgP7b-24" vertex="1">
          <mxGeometry width="30" height="30" as="geometry">
            <mxRectangle width="30" height="30" as="alternateBounds" />
          </mxGeometry>
        </mxCell>
        <mxCell id="C-vyLk0tnHw3VtMMgP7b-26" value="Рок" style="shape=partialRectangle;overflow=hidden;connectable=0;fillColor=none;top=0;left=0;bottom=0;right=0;align=left;spacingLeft=6;fontStyle=5;" parent="C-vyLk0tnHw3VtMMgP7b-24" vertex="1">
          <mxGeometry x="30" width="170" height="30" as="geometry">
            <mxRectangle width="170" height="30" as="alternateBounds" />
          </mxGeometry>
        </mxCell>
        <mxCell id="C-vyLk0tnHw3VtMMgP7b-27" value="" style="shape=partialRectangle;collapsible=0;dropTarget=0;pointerEvents=0;fillColor=none;points=[[0,0.5],[1,0.5]];portConstraint=eastwest;top=0;left=0;right=0;bottom=0;" parent="C-vyLk0tnHw3VtMMgP7b-23" vertex="1">
          <mxGeometry y="60" width="200" height="30" as="geometry" />
        </mxCell>
        <mxCell id="C-vyLk0tnHw3VtMMgP7b-28" value="2" style="shape=partialRectangle;overflow=hidden;connectable=0;fillColor=none;top=0;left=0;bottom=0;right=0;" parent="C-vyLk0tnHw3VtMMgP7b-27" vertex="1">
          <mxGeometry width="30" height="30" as="geometry">
            <mxRectangle width="30" height="30" as="alternateBounds" />
          </mxGeometry>
        </mxCell>
        <mxCell id="C-vyLk0tnHw3VtMMgP7b-29" value="Поп" style="shape=partialRectangle;overflow=hidden;connectable=0;fillColor=none;top=0;left=0;bottom=0;right=0;align=left;spacingLeft=6;" parent="C-vyLk0tnHw3VtMMgP7b-27" vertex="1">
          <mxGeometry x="30" width="170" height="30" as="geometry">
            <mxRectangle width="170" height="30" as="alternateBounds" />
          </mxGeometry>
        </mxCell>
        <mxCell id="YTF2hIUv2K5-e52_fm-p-2" value="Исполнитель" style="shape=table;startSize=30;container=1;collapsible=1;childLayout=tableLayout;fixedRows=1;rowLines=0;fontStyle=1;align=center;resizeLast=1;" vertex="1" parent="1">
          <mxGeometry x="620" y="400" width="170" height="90" as="geometry" />
        </mxCell>
        <mxCell id="YTF2hIUv2K5-e52_fm-p-3" value="" style="shape=partialRectangle;collapsible=0;dropTarget=0;pointerEvents=0;fillColor=none;points=[[0,0.5],[1,0.5]];portConstraint=eastwest;top=0;left=0;right=0;bottom=1;" vertex="1" parent="YTF2hIUv2K5-e52_fm-p-2">
          <mxGeometry y="30" width="170" height="30" as="geometry" />
        </mxCell>
        <mxCell id="YTF2hIUv2K5-e52_fm-p-4" value="1" style="shape=partialRectangle;overflow=hidden;connectable=0;fillColor=none;top=0;left=0;bottom=0;right=0;fontStyle=1;" vertex="1" parent="YTF2hIUv2K5-e52_fm-p-3">
          <mxGeometry width="30" height="30" as="geometry">
            <mxRectangle width="30" height="30" as="alternateBounds" />
          </mxGeometry>
        </mxCell>
        <mxCell id="YTF2hIUv2K5-e52_fm-p-5" value="Роб" style="shape=partialRectangle;overflow=hidden;connectable=0;fillColor=none;top=0;left=0;bottom=0;right=0;align=left;spacingLeft=6;fontStyle=5;" vertex="1" parent="YTF2hIUv2K5-e52_fm-p-3">
          <mxGeometry x="30" width="140" height="30" as="geometry">
            <mxRectangle width="140" height="30" as="alternateBounds" />
          </mxGeometry>
        </mxCell>
        <mxCell id="YTF2hIUv2K5-e52_fm-p-6" value="" style="shape=partialRectangle;collapsible=0;dropTarget=0;pointerEvents=0;fillColor=none;points=[[0,0.5],[1,0.5]];portConstraint=eastwest;top=0;left=0;right=0;bottom=0;" vertex="1" parent="YTF2hIUv2K5-e52_fm-p-2">
          <mxGeometry y="60" width="170" height="30" as="geometry" />
        </mxCell>
        <mxCell id="YTF2hIUv2K5-e52_fm-p-7" value="2" style="shape=partialRectangle;overflow=hidden;connectable=0;fillColor=none;top=0;left=0;bottom=0;right=0;" vertex="1" parent="YTF2hIUv2K5-e52_fm-p-6">
          <mxGeometry width="30" height="30" as="geometry">
            <mxRectangle width="30" height="30" as="alternateBounds" />
          </mxGeometry>
        </mxCell>
        <mxCell id="YTF2hIUv2K5-e52_fm-p-8" value="Боб" style="shape=partialRectangle;overflow=hidden;connectable=0;fillColor=none;top=0;left=0;bottom=0;right=0;align=left;spacingLeft=6;" vertex="1" parent="YTF2hIUv2K5-e52_fm-p-6">
          <mxGeometry x="30" width="140" height="30" as="geometry">
            <mxRectangle width="140" height="30" as="alternateBounds" />
          </mxGeometry>
        </mxCell>
        <mxCell id="YTF2hIUv2K5-e52_fm-p-84" value="" style="group" vertex="1" connectable="0" parent="1">
          <mxGeometry x="910" y="580" width="140" height="90" as="geometry" />
        </mxCell>
        <mxCell id="YTF2hIUv2K5-e52_fm-p-26" value="Альбом" style="shape=table;startSize=30;container=1;collapsible=1;childLayout=tableLayout;fixedRows=1;rowLines=0;fontStyle=1;align=center;resizeLast=1;swimlaneLine=1;" vertex="1" parent="YTF2hIUv2K5-e52_fm-p-84">
          <mxGeometry width="140" height="90" as="geometry">
            <mxRectangle x="960" y="510" width="80" height="30" as="alternateBounds" />
          </mxGeometry>
        </mxCell>
        <mxCell id="YTF2hIUv2K5-e52_fm-p-27" value="" style="shape=partialRectangle;collapsible=0;dropTarget=0;pointerEvents=0;fillColor=none;points=[[0,0.5],[1,0.5]];portConstraint=eastwest;top=0;left=0;right=0;bottom=1;" vertex="1" parent="YTF2hIUv2K5-e52_fm-p-26">
          <mxGeometry y="30" width="140" height="30" as="geometry" />
        </mxCell>
        <mxCell id="YTF2hIUv2K5-e52_fm-p-28" value="Попс" style="shape=partialRectangle;overflow=hidden;connectable=0;fillColor=none;top=0;left=0;bottom=0;right=0;fontStyle=1;" vertex="1" parent="YTF2hIUv2K5-e52_fm-p-27">
          <mxGeometry width="30" height="30" as="geometry">
            <mxRectangle width="30" height="30" as="alternateBounds" />
          </mxGeometry>
        </mxCell>
        <mxCell id="YTF2hIUv2K5-e52_fm-p-29" value="Первый" style="shape=partialRectangle;overflow=hidden;connectable=0;fillColor=none;top=0;left=0;bottom=0;right=0;align=left;spacingLeft=6;fontStyle=5;" vertex="1" parent="YTF2hIUv2K5-e52_fm-p-27">
          <mxGeometry x="30" width="110" height="30" as="geometry">
            <mxRectangle width="110" height="30" as="alternateBounds" />
          </mxGeometry>
        </mxCell>
        <mxCell id="YTF2hIUv2K5-e52_fm-p-30" value="" style="shape=partialRectangle;collapsible=0;dropTarget=0;pointerEvents=0;fillColor=none;points=[[0,0.5],[1,0.5]];portConstraint=eastwest;top=0;left=0;right=0;bottom=0;" vertex="1" parent="YTF2hIUv2K5-e52_fm-p-26">
          <mxGeometry y="60" width="140" height="30" as="geometry" />
        </mxCell>
        <mxCell id="YTF2hIUv2K5-e52_fm-p-31" value="Попс" style="shape=partialRectangle;overflow=hidden;connectable=0;fillColor=none;top=0;left=0;bottom=0;right=0;" vertex="1" parent="YTF2hIUv2K5-e52_fm-p-30">
          <mxGeometry width="30" height="30" as="geometry">
            <mxRectangle width="30" height="30" as="alternateBounds" />
          </mxGeometry>
        </mxCell>
        <mxCell id="YTF2hIUv2K5-e52_fm-p-32" value="Второй" style="shape=partialRectangle;overflow=hidden;connectable=0;fillColor=none;top=0;left=0;bottom=0;right=0;align=left;spacingLeft=6;" vertex="1" parent="YTF2hIUv2K5-e52_fm-p-30">
          <mxGeometry x="30" width="110" height="30" as="geometry">
            <mxRectangle width="110" height="30" as="alternateBounds" />
          </mxGeometry>
        </mxCell>
        <mxCell id="YTF2hIUv2K5-e52_fm-p-74" value="1982" style="rounded=0;whiteSpace=wrap;html=1;fillColor=none;" vertex="1" parent="YTF2hIUv2K5-e52_fm-p-84">
          <mxGeometry x="110" y="30" width="30" height="30" as="geometry" />
        </mxCell>
        <mxCell id="YTF2hIUv2K5-e52_fm-p-80" value="" style="rounded=0;whiteSpace=wrap;html=1;fillColor=none;" vertex="1" parent="YTF2hIUv2K5-e52_fm-p-84">
          <mxGeometry x="110" y="60" width="30" height="30" as="geometry" />
        </mxCell>
        <mxCell id="YTF2hIUv2K5-e52_fm-p-81" value="1929" style="rounded=0;whiteSpace=wrap;html=1;fillColor=none;" vertex="1" parent="YTF2hIUv2K5-e52_fm-p-84">
          <mxGeometry x="110" y="60" width="30" height="30" as="geometry" />
        </mxCell>
        <mxCell id="YTF2hIUv2K5-e52_fm-p-85" value="" style="group" vertex="1" connectable="0" parent="1">
          <mxGeometry x="910" y="710" width="140" height="90" as="geometry" />
        </mxCell>
        <mxCell id="YTF2hIUv2K5-e52_fm-p-86" value="Альбом" style="shape=table;startSize=30;container=1;collapsible=1;childLayout=tableLayout;fixedRows=1;rowLines=0;fontStyle=1;align=center;resizeLast=1;swimlaneLine=1;" vertex="1" parent="YTF2hIUv2K5-e52_fm-p-85">
          <mxGeometry width="140" height="90" as="geometry">
            <mxRectangle x="960" y="510" width="80" height="30" as="alternateBounds" />
          </mxGeometry>
        </mxCell>
        <mxCell id="YTF2hIUv2K5-e52_fm-p-87" value="" style="shape=partialRectangle;collapsible=0;dropTarget=0;pointerEvents=0;fillColor=none;points=[[0,0.5],[1,0.5]];portConstraint=eastwest;top=0;left=0;right=0;bottom=1;" vertex="1" parent="YTF2hIUv2K5-e52_fm-p-86">
          <mxGeometry y="30" width="140" height="30" as="geometry" />
        </mxCell>
        <mxCell id="YTF2hIUv2K5-e52_fm-p-88" value="Копс" style="shape=partialRectangle;overflow=hidden;connectable=0;fillColor=none;top=0;left=0;bottom=0;right=0;fontStyle=1;" vertex="1" parent="YTF2hIUv2K5-e52_fm-p-87">
          <mxGeometry width="30" height="30" as="geometry">
            <mxRectangle width="30" height="30" as="alternateBounds" />
          </mxGeometry>
        </mxCell>
        <mxCell id="YTF2hIUv2K5-e52_fm-p-89" value="Первый" style="shape=partialRectangle;overflow=hidden;connectable=0;fillColor=none;top=0;left=0;bottom=0;right=0;align=left;spacingLeft=6;fontStyle=5;" vertex="1" parent="YTF2hIUv2K5-e52_fm-p-87">
          <mxGeometry x="30" width="110" height="30" as="geometry">
            <mxRectangle width="110" height="30" as="alternateBounds" />
          </mxGeometry>
        </mxCell>
        <mxCell id="YTF2hIUv2K5-e52_fm-p-90" value="" style="shape=partialRectangle;collapsible=0;dropTarget=0;pointerEvents=0;fillColor=none;points=[[0,0.5],[1,0.5]];portConstraint=eastwest;top=0;left=0;right=0;bottom=0;" vertex="1" parent="YTF2hIUv2K5-e52_fm-p-86">
          <mxGeometry y="60" width="140" height="30" as="geometry" />
        </mxCell>
        <mxCell id="YTF2hIUv2K5-e52_fm-p-91" value="Копс" style="shape=partialRectangle;overflow=hidden;connectable=0;fillColor=none;top=0;left=0;bottom=0;right=0;" vertex="1" parent="YTF2hIUv2K5-e52_fm-p-90">
          <mxGeometry width="30" height="30" as="geometry">
            <mxRectangle width="30" height="30" as="alternateBounds" />
          </mxGeometry>
        </mxCell>
        <mxCell id="YTF2hIUv2K5-e52_fm-p-92" value="Второй" style="shape=partialRectangle;overflow=hidden;connectable=0;fillColor=none;top=0;left=0;bottom=0;right=0;align=left;spacingLeft=6;" vertex="1" parent="YTF2hIUv2K5-e52_fm-p-90">
          <mxGeometry x="30" width="110" height="30" as="geometry">
            <mxRectangle width="110" height="30" as="alternateBounds" />
          </mxGeometry>
        </mxCell>
        <mxCell id="YTF2hIUv2K5-e52_fm-p-93" value="1982" style="rounded=0;whiteSpace=wrap;html=1;fillColor=none;" vertex="1" parent="YTF2hIUv2K5-e52_fm-p-85">
          <mxGeometry x="110" y="30" width="30" height="30" as="geometry" />
        </mxCell>
        <mxCell id="YTF2hIUv2K5-e52_fm-p-94" value="" style="rounded=0;whiteSpace=wrap;html=1;fillColor=none;" vertex="1" parent="YTF2hIUv2K5-e52_fm-p-85">
          <mxGeometry x="110" y="60" width="30" height="30" as="geometry" />
        </mxCell>
        <mxCell id="YTF2hIUv2K5-e52_fm-p-95" value="1929" style="rounded=0;whiteSpace=wrap;html=1;fillColor=none;" vertex="1" parent="YTF2hIUv2K5-e52_fm-p-85">
          <mxGeometry x="110" y="60" width="30" height="30" as="geometry" />
        </mxCell>
        <mxCell id="YTF2hIUv2K5-e52_fm-p-229" style="edgeStyle=orthogonalEdgeStyle;rounded=0;orthogonalLoop=1;jettySize=auto;html=1;" edge="1" parent="YTF2hIUv2K5-e52_fm-p-85" source="YTF2hIUv2K5-e52_fm-p-90">
          <mxGeometry relative="1" as="geometry">
            <mxPoint x="150" y="129.99999999999977" as="targetPoint" />
          </mxGeometry>
        </mxCell>
        <mxCell id="YTF2hIUv2K5-e52_fm-p-96" value="" style="group" vertex="1" connectable="0" parent="1">
          <mxGeometry x="910" y="300" width="140" height="90" as="geometry" />
        </mxCell>
        <mxCell id="YTF2hIUv2K5-e52_fm-p-97" value="Альбом" style="shape=table;startSize=30;container=1;collapsible=1;childLayout=tableLayout;fixedRows=1;rowLines=0;fontStyle=1;align=center;resizeLast=1;swimlaneLine=1;" vertex="1" parent="YTF2hIUv2K5-e52_fm-p-96">
          <mxGeometry width="140" height="90" as="geometry">
            <mxRectangle x="960" y="510" width="80" height="30" as="alternateBounds" />
          </mxGeometry>
        </mxCell>
        <mxCell id="YTF2hIUv2K5-e52_fm-p-98" value="" style="shape=partialRectangle;collapsible=0;dropTarget=0;pointerEvents=0;fillColor=none;points=[[0,0.5],[1,0.5]];portConstraint=eastwest;top=0;left=0;right=0;bottom=1;" vertex="1" parent="YTF2hIUv2K5-e52_fm-p-97">
          <mxGeometry y="30" width="140" height="30" as="geometry" />
        </mxCell>
        <mxCell id="YTF2hIUv2K5-e52_fm-p-99" value="Роб" style="shape=partialRectangle;overflow=hidden;connectable=0;fillColor=none;top=0;left=0;bottom=0;right=0;fontStyle=1;" vertex="1" parent="YTF2hIUv2K5-e52_fm-p-98">
          <mxGeometry width="30" height="30" as="geometry">
            <mxRectangle width="30" height="30" as="alternateBounds" />
          </mxGeometry>
        </mxCell>
        <mxCell id="YTF2hIUv2K5-e52_fm-p-100" value="Первый" style="shape=partialRectangle;overflow=hidden;connectable=0;fillColor=none;top=0;left=0;bottom=0;right=0;align=left;spacingLeft=6;fontStyle=5;" vertex="1" parent="YTF2hIUv2K5-e52_fm-p-98">
          <mxGeometry x="30" width="110" height="30" as="geometry">
            <mxRectangle width="110" height="30" as="alternateBounds" />
          </mxGeometry>
        </mxCell>
        <mxCell id="YTF2hIUv2K5-e52_fm-p-101" value="" style="shape=partialRectangle;collapsible=0;dropTarget=0;pointerEvents=0;fillColor=none;points=[[0,0.5],[1,0.5]];portConstraint=eastwest;top=0;left=0;right=0;bottom=0;" vertex="1" parent="YTF2hIUv2K5-e52_fm-p-97">
          <mxGeometry y="60" width="140" height="30" as="geometry" />
        </mxCell>
        <mxCell id="YTF2hIUv2K5-e52_fm-p-102" value="Боб" style="shape=partialRectangle;overflow=hidden;connectable=0;fillColor=none;top=0;left=0;bottom=0;right=0;" vertex="1" parent="YTF2hIUv2K5-e52_fm-p-101">
          <mxGeometry width="30" height="30" as="geometry">
            <mxRectangle width="30" height="30" as="alternateBounds" />
          </mxGeometry>
        </mxCell>
        <mxCell id="YTF2hIUv2K5-e52_fm-p-103" value="Второй" style="shape=partialRectangle;overflow=hidden;connectable=0;fillColor=none;top=0;left=0;bottom=0;right=0;align=left;spacingLeft=6;" vertex="1" parent="YTF2hIUv2K5-e52_fm-p-101">
          <mxGeometry x="30" width="110" height="30" as="geometry">
            <mxRectangle width="110" height="30" as="alternateBounds" />
          </mxGeometry>
        </mxCell>
        <mxCell id="YTF2hIUv2K5-e52_fm-p-104" value="2014" style="rounded=0;whiteSpace=wrap;html=1;fillColor=none;" vertex="1" parent="YTF2hIUv2K5-e52_fm-p-96">
          <mxGeometry x="110" y="30" width="30" height="30" as="geometry" />
        </mxCell>
        <mxCell id="YTF2hIUv2K5-e52_fm-p-105" value="" style="rounded=0;whiteSpace=wrap;html=1;fillColor=none;" vertex="1" parent="YTF2hIUv2K5-e52_fm-p-96">
          <mxGeometry x="110" y="60" width="30" height="30" as="geometry" />
        </mxCell>
        <mxCell id="YTF2hIUv2K5-e52_fm-p-106" value="1811" style="rounded=0;whiteSpace=wrap;html=1;fillColor=none;" vertex="1" parent="YTF2hIUv2K5-e52_fm-p-96">
          <mxGeometry x="110" y="60" width="30" height="30" as="geometry" />
        </mxCell>
        <mxCell id="YTF2hIUv2K5-e52_fm-p-107" value="" style="group" vertex="1" connectable="0" parent="1">
          <mxGeometry x="910" y="170" width="140" height="90" as="geometry" />
        </mxCell>
        <mxCell id="YTF2hIUv2K5-e52_fm-p-108" value="Альбом" style="shape=table;startSize=30;container=1;collapsible=1;childLayout=tableLayout;fixedRows=1;rowLines=0;fontStyle=1;align=center;resizeLast=1;swimlaneLine=1;" vertex="1" parent="YTF2hIUv2K5-e52_fm-p-107">
          <mxGeometry width="140" height="90" as="geometry">
            <mxRectangle x="960" y="510" width="80" height="30" as="alternateBounds" />
          </mxGeometry>
        </mxCell>
        <mxCell id="YTF2hIUv2K5-e52_fm-p-109" value="" style="shape=partialRectangle;collapsible=0;dropTarget=0;pointerEvents=0;fillColor=none;points=[[0,0.5],[1,0.5]];portConstraint=eastwest;top=0;left=0;right=0;bottom=1;" vertex="1" parent="YTF2hIUv2K5-e52_fm-p-108">
          <mxGeometry y="30" width="140" height="30" as="geometry" />
        </mxCell>
        <mxCell id="YTF2hIUv2K5-e52_fm-p-110" value="Роб" style="shape=partialRectangle;overflow=hidden;connectable=0;fillColor=none;top=0;left=0;bottom=0;right=0;fontStyle=1;" vertex="1" parent="YTF2hIUv2K5-e52_fm-p-109">
          <mxGeometry width="30" height="30" as="geometry">
            <mxRectangle width="30" height="30" as="alternateBounds" />
          </mxGeometry>
        </mxCell>
        <mxCell id="YTF2hIUv2K5-e52_fm-p-111" value="Первый" style="shape=partialRectangle;overflow=hidden;connectable=0;fillColor=none;top=0;left=0;bottom=0;right=0;align=left;spacingLeft=6;fontStyle=5;" vertex="1" parent="YTF2hIUv2K5-e52_fm-p-109">
          <mxGeometry x="30" width="110" height="30" as="geometry">
            <mxRectangle width="110" height="30" as="alternateBounds" />
          </mxGeometry>
        </mxCell>
        <mxCell id="YTF2hIUv2K5-e52_fm-p-112" value="" style="shape=partialRectangle;collapsible=0;dropTarget=0;pointerEvents=0;fillColor=none;points=[[0,0.5],[1,0.5]];portConstraint=eastwest;top=0;left=0;right=0;bottom=0;" vertex="1" parent="YTF2hIUv2K5-e52_fm-p-108">
          <mxGeometry y="60" width="140" height="30" as="geometry" />
        </mxCell>
        <mxCell id="YTF2hIUv2K5-e52_fm-p-113" value="2" style="shape=partialRectangle;overflow=hidden;connectable=0;fillColor=none;top=0;left=0;bottom=0;right=0;" vertex="1" parent="YTF2hIUv2K5-e52_fm-p-112">
          <mxGeometry width="30" height="30" as="geometry">
            <mxRectangle width="30" height="30" as="alternateBounds" />
          </mxGeometry>
        </mxCell>
        <mxCell id="YTF2hIUv2K5-e52_fm-p-114" value="Второй" style="shape=partialRectangle;overflow=hidden;connectable=0;fillColor=none;top=0;left=0;bottom=0;right=0;align=left;spacingLeft=6;" vertex="1" parent="YTF2hIUv2K5-e52_fm-p-112">
          <mxGeometry x="30" width="110" height="30" as="geometry">
            <mxRectangle width="110" height="30" as="alternateBounds" />
          </mxGeometry>
        </mxCell>
        <mxCell id="YTF2hIUv2K5-e52_fm-p-115" value="1985" style="rounded=0;whiteSpace=wrap;html=1;fillColor=none;" vertex="1" parent="YTF2hIUv2K5-e52_fm-p-107">
          <mxGeometry x="110" y="30" width="30" height="30" as="geometry" />
        </mxCell>
        <mxCell id="YTF2hIUv2K5-e52_fm-p-116" value="" style="rounded=0;whiteSpace=wrap;html=1;fillColor=none;" vertex="1" parent="YTF2hIUv2K5-e52_fm-p-107">
          <mxGeometry x="110" y="60" width="30" height="30" as="geometry" />
        </mxCell>
        <mxCell id="YTF2hIUv2K5-e52_fm-p-117" value="2059" style="rounded=0;whiteSpace=wrap;html=1;fillColor=none;" vertex="1" parent="YTF2hIUv2K5-e52_fm-p-107">
          <mxGeometry x="110" y="60" width="30" height="30" as="geometry" />
        </mxCell>
        <mxCell id="YTF2hIUv2K5-e52_fm-p-243" style="edgeStyle=orthogonalEdgeStyle;rounded=0;orthogonalLoop=1;jettySize=auto;html=1;entryX=0.5;entryY=0;entryDx=0;entryDy=0;" edge="1" parent="1" source="YTF2hIUv2K5-e52_fm-p-118" target="YTF2hIUv2K5-e52_fm-p-108">
          <mxGeometry relative="1" as="geometry" />
        </mxCell>
        <mxCell id="YTF2hIUv2K5-e52_fm-p-118" value="РОК" style="rounded=0;whiteSpace=wrap;html=1;fillColor=none;" vertex="1" parent="1">
          <mxGeometry x="740" y="430" width="50" height="30" as="geometry" />
        </mxCell>
        <mxCell id="YTF2hIUv2K5-e52_fm-p-150" value="" style="group" vertex="1" connectable="0" parent="1">
          <mxGeometry x="1115" y="490" width="165" height="90" as="geometry" />
        </mxCell>
        <mxCell id="YTF2hIUv2K5-e52_fm-p-57" value="Треки" style="shape=table;startSize=30;container=1;collapsible=1;childLayout=tableLayout;fixedRows=1;rowLines=0;fontStyle=1;align=center;resizeLast=1;" vertex="1" parent="YTF2hIUv2K5-e52_fm-p-150">
          <mxGeometry width="165" height="90" as="geometry" />
        </mxCell>
        <mxCell id="YTF2hIUv2K5-e52_fm-p-58" value="" style="shape=partialRectangle;collapsible=0;dropTarget=0;pointerEvents=0;fillColor=none;points=[[0,0.5],[1,0.5]];portConstraint=eastwest;top=0;left=0;right=0;bottom=1;" vertex="1" parent="YTF2hIUv2K5-e52_fm-p-57">
          <mxGeometry y="30" width="165" height="30" as="geometry" />
        </mxCell>
        <mxCell id="YTF2hIUv2K5-e52_fm-p-59" value="1" style="shape=partialRectangle;overflow=hidden;connectable=0;fillColor=none;top=0;left=0;bottom=0;right=0;fontStyle=1;" vertex="1" parent="YTF2hIUv2K5-e52_fm-p-58">
          <mxGeometry width="30" height="30" as="geometry">
            <mxRectangle width="30" height="30" as="alternateBounds" />
          </mxGeometry>
        </mxCell>
        <mxCell id="YTF2hIUv2K5-e52_fm-p-60" value="Соло" style="shape=partialRectangle;overflow=hidden;connectable=0;fillColor=none;top=0;left=0;bottom=0;right=0;align=left;spacingLeft=6;fontStyle=5;" vertex="1" parent="YTF2hIUv2K5-e52_fm-p-58">
          <mxGeometry x="30" width="135" height="30" as="geometry">
            <mxRectangle width="135" height="30" as="alternateBounds" />
          </mxGeometry>
        </mxCell>
        <mxCell id="YTF2hIUv2K5-e52_fm-p-61" value="" style="shape=partialRectangle;collapsible=0;dropTarget=0;pointerEvents=0;fillColor=none;points=[[0,0.5],[1,0.5]];portConstraint=eastwest;top=0;left=0;right=0;bottom=0;" vertex="1" parent="YTF2hIUv2K5-e52_fm-p-57">
          <mxGeometry y="60" width="165" height="30" as="geometry" />
        </mxCell>
        <mxCell id="YTF2hIUv2K5-e52_fm-p-62" value="2" style="shape=partialRectangle;overflow=hidden;connectable=0;fillColor=none;top=0;left=0;bottom=0;right=0;" vertex="1" parent="YTF2hIUv2K5-e52_fm-p-61">
          <mxGeometry width="30" height="30" as="geometry">
            <mxRectangle width="30" height="30" as="alternateBounds" />
          </mxGeometry>
        </mxCell>
        <mxCell id="YTF2hIUv2K5-e52_fm-p-63" value="Коллаб" style="shape=partialRectangle;overflow=hidden;connectable=0;fillColor=none;top=0;left=0;bottom=0;right=0;align=left;spacingLeft=6;" vertex="1" parent="YTF2hIUv2K5-e52_fm-p-61">
          <mxGeometry x="30" width="135" height="30" as="geometry">
            <mxRectangle width="135" height="30" as="alternateBounds" />
          </mxGeometry>
        </mxCell>
        <mxCell id="YTF2hIUv2K5-e52_fm-p-120" value="3,2" style="rounded=0;whiteSpace=wrap;html=1;fillColor=none;" vertex="1" parent="YTF2hIUv2K5-e52_fm-p-150">
          <mxGeometry x="115" y="30" width="50" height="30" as="geometry" />
        </mxCell>
        <mxCell id="YTF2hIUv2K5-e52_fm-p-121" value="4,1" style="rounded=0;whiteSpace=wrap;html=1;fillColor=none;" vertex="1" parent="YTF2hIUv2K5-e52_fm-p-150">
          <mxGeometry x="115" y="60" width="50" height="30" as="geometry" />
        </mxCell>
        <mxCell id="YTF2hIUv2K5-e52_fm-p-151" value="" style="group" vertex="1" connectable="0" parent="1">
          <mxGeometry x="1115" y="710" width="165" height="90" as="geometry" />
        </mxCell>
        <mxCell id="YTF2hIUv2K5-e52_fm-p-152" value="Треки" style="shape=table;startSize=30;container=1;collapsible=1;childLayout=tableLayout;fixedRows=1;rowLines=0;fontStyle=1;align=center;resizeLast=1;" vertex="1" parent="YTF2hIUv2K5-e52_fm-p-151">
          <mxGeometry width="165" height="90" as="geometry">
            <mxRectangle width="70" height="30" as="alternateBounds" />
          </mxGeometry>
        </mxCell>
        <mxCell id="YTF2hIUv2K5-e52_fm-p-153" value="" style="shape=partialRectangle;collapsible=0;dropTarget=0;pointerEvents=0;fillColor=none;points=[[0,0.5],[1,0.5]];portConstraint=eastwest;top=0;left=0;right=0;bottom=1;" vertex="1" parent="YTF2hIUv2K5-e52_fm-p-152">
          <mxGeometry y="30" width="165" height="30" as="geometry" />
        </mxCell>
        <mxCell id="YTF2hIUv2K5-e52_fm-p-154" value="1" style="shape=partialRectangle;overflow=hidden;connectable=0;fillColor=none;top=0;left=0;bottom=0;right=0;fontStyle=1;" vertex="1" parent="YTF2hIUv2K5-e52_fm-p-153">
          <mxGeometry width="30" height="30" as="geometry">
            <mxRectangle width="30" height="30" as="alternateBounds" />
          </mxGeometry>
        </mxCell>
        <mxCell id="YTF2hIUv2K5-e52_fm-p-155" value="Соло" style="shape=partialRectangle;overflow=hidden;connectable=0;fillColor=none;top=0;left=0;bottom=0;right=0;align=left;spacingLeft=6;fontStyle=5;" vertex="1" parent="YTF2hIUv2K5-e52_fm-p-153">
          <mxGeometry x="30" width="135" height="30" as="geometry">
            <mxRectangle width="135" height="30" as="alternateBounds" />
          </mxGeometry>
        </mxCell>
        <mxCell id="YTF2hIUv2K5-e52_fm-p-156" value="" style="shape=partialRectangle;collapsible=0;dropTarget=0;pointerEvents=0;fillColor=none;points=[[0,0.5],[1,0.5]];portConstraint=eastwest;top=0;left=0;right=0;bottom=0;" vertex="1" parent="YTF2hIUv2K5-e52_fm-p-152">
          <mxGeometry y="60" width="165" height="30" as="geometry" />
        </mxCell>
        <mxCell id="YTF2hIUv2K5-e52_fm-p-157" value="2" style="shape=partialRectangle;overflow=hidden;connectable=0;fillColor=none;top=0;left=0;bottom=0;right=0;" vertex="1" parent="YTF2hIUv2K5-e52_fm-p-156">
          <mxGeometry width="30" height="30" as="geometry">
            <mxRectangle width="30" height="30" as="alternateBounds" />
          </mxGeometry>
        </mxCell>
        <mxCell id="YTF2hIUv2K5-e52_fm-p-158" value="Коллаб" style="shape=partialRectangle;overflow=hidden;connectable=0;fillColor=none;top=0;left=0;bottom=0;right=0;align=left;spacingLeft=6;" vertex="1" parent="YTF2hIUv2K5-e52_fm-p-156">
          <mxGeometry x="30" width="135" height="30" as="geometry">
            <mxRectangle width="135" height="30" as="alternateBounds" />
          </mxGeometry>
        </mxCell>
        <mxCell id="YTF2hIUv2K5-e52_fm-p-159" value="12,5" style="rounded=0;whiteSpace=wrap;html=1;fillColor=none;" vertex="1" parent="YTF2hIUv2K5-e52_fm-p-151">
          <mxGeometry x="115" y="30" width="50" height="30" as="geometry" />
        </mxCell>
        <mxCell id="YTF2hIUv2K5-e52_fm-p-160" value="4,1" style="rounded=0;whiteSpace=wrap;html=1;fillColor=none;" vertex="1" parent="YTF2hIUv2K5-e52_fm-p-151">
          <mxGeometry x="115" y="60" width="50" height="30" as="geometry" />
        </mxCell>
        <mxCell id="YTF2hIUv2K5-e52_fm-p-161" value="" style="group" vertex="1" connectable="0" parent="1">
          <mxGeometry x="1210" y="320" width="165" height="90" as="geometry" />
        </mxCell>
        <mxCell id="YTF2hIUv2K5-e52_fm-p-162" value="Треки" style="shape=table;startSize=30;container=1;collapsible=1;childLayout=tableLayout;fixedRows=1;rowLines=0;fontStyle=1;align=center;resizeLast=1;" vertex="1" parent="YTF2hIUv2K5-e52_fm-p-161">
          <mxGeometry width="165" height="90" as="geometry" />
        </mxCell>
        <mxCell id="YTF2hIUv2K5-e52_fm-p-163" value="" style="shape=partialRectangle;collapsible=0;dropTarget=0;pointerEvents=0;fillColor=none;points=[[0,0.5],[1,0.5]];portConstraint=eastwest;top=0;left=0;right=0;bottom=1;" vertex="1" parent="YTF2hIUv2K5-e52_fm-p-162">
          <mxGeometry y="30" width="165" height="30" as="geometry" />
        </mxCell>
        <mxCell id="YTF2hIUv2K5-e52_fm-p-164" value="1" style="shape=partialRectangle;overflow=hidden;connectable=0;fillColor=none;top=0;left=0;bottom=0;right=0;fontStyle=1;" vertex="1" parent="YTF2hIUv2K5-e52_fm-p-163">
          <mxGeometry width="30" height="30" as="geometry">
            <mxRectangle width="30" height="30" as="alternateBounds" />
          </mxGeometry>
        </mxCell>
        <mxCell id="YTF2hIUv2K5-e52_fm-p-165" value="Соло" style="shape=partialRectangle;overflow=hidden;connectable=0;fillColor=none;top=0;left=0;bottom=0;right=0;align=left;spacingLeft=6;fontStyle=5;" vertex="1" parent="YTF2hIUv2K5-e52_fm-p-163">
          <mxGeometry x="30" width="135" height="30" as="geometry">
            <mxRectangle width="135" height="30" as="alternateBounds" />
          </mxGeometry>
        </mxCell>
        <mxCell id="YTF2hIUv2K5-e52_fm-p-166" value="" style="shape=partialRectangle;collapsible=0;dropTarget=0;pointerEvents=0;fillColor=none;points=[[0,0.5],[1,0.5]];portConstraint=eastwest;top=0;left=0;right=0;bottom=0;" vertex="1" parent="YTF2hIUv2K5-e52_fm-p-162">
          <mxGeometry y="60" width="165" height="30" as="geometry" />
        </mxCell>
        <mxCell id="YTF2hIUv2K5-e52_fm-p-167" value="2" style="shape=partialRectangle;overflow=hidden;connectable=0;fillColor=none;top=0;left=0;bottom=0;right=0;" vertex="1" parent="YTF2hIUv2K5-e52_fm-p-166">
          <mxGeometry width="30" height="30" as="geometry">
            <mxRectangle width="30" height="30" as="alternateBounds" />
          </mxGeometry>
        </mxCell>
        <mxCell id="YTF2hIUv2K5-e52_fm-p-168" value="Коллаб" style="shape=partialRectangle;overflow=hidden;connectable=0;fillColor=none;top=0;left=0;bottom=0;right=0;align=left;spacingLeft=6;" vertex="1" parent="YTF2hIUv2K5-e52_fm-p-166">
          <mxGeometry x="30" width="135" height="30" as="geometry">
            <mxRectangle width="135" height="30" as="alternateBounds" />
          </mxGeometry>
        </mxCell>
        <mxCell id="YTF2hIUv2K5-e52_fm-p-169" value="1,7" style="rounded=0;whiteSpace=wrap;html=1;fillColor=none;" vertex="1" parent="YTF2hIUv2K5-e52_fm-p-161">
          <mxGeometry x="115" y="30" width="50" height="30" as="geometry" />
        </mxCell>
        <mxCell id="YTF2hIUv2K5-e52_fm-p-170" value="5,2" style="rounded=0;whiteSpace=wrap;html=1;fillColor=none;" vertex="1" parent="YTF2hIUv2K5-e52_fm-p-161">
          <mxGeometry x="115" y="60" width="50" height="30" as="geometry" />
        </mxCell>
        <mxCell id="YTF2hIUv2K5-e52_fm-p-171" value="" style="group" vertex="1" connectable="0" parent="1">
          <mxGeometry x="1210" y="190" width="165" height="90" as="geometry" />
        </mxCell>
        <mxCell id="YTF2hIUv2K5-e52_fm-p-172" value="Треки" style="shape=table;startSize=30;container=1;collapsible=1;childLayout=tableLayout;fixedRows=1;rowLines=0;fontStyle=1;align=center;resizeLast=1;" vertex="1" parent="YTF2hIUv2K5-e52_fm-p-171">
          <mxGeometry width="165" height="90" as="geometry" />
        </mxCell>
        <mxCell id="YTF2hIUv2K5-e52_fm-p-173" value="" style="shape=partialRectangle;collapsible=0;dropTarget=0;pointerEvents=0;fillColor=none;points=[[0,0.5],[1,0.5]];portConstraint=eastwest;top=0;left=0;right=0;bottom=1;" vertex="1" parent="YTF2hIUv2K5-e52_fm-p-172">
          <mxGeometry y="30" width="165" height="30" as="geometry" />
        </mxCell>
        <mxCell id="YTF2hIUv2K5-e52_fm-p-174" value="1" style="shape=partialRectangle;overflow=hidden;connectable=0;fillColor=none;top=0;left=0;bottom=0;right=0;fontStyle=1;" vertex="1" parent="YTF2hIUv2K5-e52_fm-p-173">
          <mxGeometry width="30" height="30" as="geometry">
            <mxRectangle width="30" height="30" as="alternateBounds" />
          </mxGeometry>
        </mxCell>
        <mxCell id="YTF2hIUv2K5-e52_fm-p-175" value="Соло" style="shape=partialRectangle;overflow=hidden;connectable=0;fillColor=none;top=0;left=0;bottom=0;right=0;align=left;spacingLeft=6;fontStyle=5;" vertex="1" parent="YTF2hIUv2K5-e52_fm-p-173">
          <mxGeometry x="30" width="135" height="30" as="geometry">
            <mxRectangle width="135" height="30" as="alternateBounds" />
          </mxGeometry>
        </mxCell>
        <mxCell id="YTF2hIUv2K5-e52_fm-p-176" value="" style="shape=partialRectangle;collapsible=0;dropTarget=0;pointerEvents=0;fillColor=none;points=[[0,0.5],[1,0.5]];portConstraint=eastwest;top=0;left=0;right=0;bottom=0;" vertex="1" parent="YTF2hIUv2K5-e52_fm-p-172">
          <mxGeometry y="60" width="165" height="30" as="geometry" />
        </mxCell>
        <mxCell id="YTF2hIUv2K5-e52_fm-p-177" value="2" style="shape=partialRectangle;overflow=hidden;connectable=0;fillColor=none;top=0;left=0;bottom=0;right=0;" vertex="1" parent="YTF2hIUv2K5-e52_fm-p-176">
          <mxGeometry width="30" height="30" as="geometry">
            <mxRectangle width="30" height="30" as="alternateBounds" />
          </mxGeometry>
        </mxCell>
        <mxCell id="YTF2hIUv2K5-e52_fm-p-178" value="Коллаб" style="shape=partialRectangle;overflow=hidden;connectable=0;fillColor=none;top=0;left=0;bottom=0;right=0;align=left;spacingLeft=6;" vertex="1" parent="YTF2hIUv2K5-e52_fm-p-176">
          <mxGeometry x="30" width="135" height="30" as="geometry">
            <mxRectangle width="135" height="30" as="alternateBounds" />
          </mxGeometry>
        </mxCell>
        <mxCell id="YTF2hIUv2K5-e52_fm-p-179" value="1,5" style="rounded=0;whiteSpace=wrap;html=1;fillColor=none;" vertex="1" parent="YTF2hIUv2K5-e52_fm-p-171">
          <mxGeometry x="115" y="30" width="50" height="30" as="geometry" />
        </mxCell>
        <mxCell id="YTF2hIUv2K5-e52_fm-p-180" value="2,8" style="rounded=0;whiteSpace=wrap;html=1;fillColor=none;" vertex="1" parent="YTF2hIUv2K5-e52_fm-p-171">
          <mxGeometry x="115" y="60" width="50" height="30" as="geometry" />
        </mxCell>
        <mxCell id="YTF2hIUv2K5-e52_fm-p-202" value="РОК" style="rounded=0;whiteSpace=wrap;html=1;fillColor=none;" vertex="1" parent="1">
          <mxGeometry x="740" y="460" width="50" height="30" as="geometry" />
        </mxCell>
        <mxCell id="YTF2hIUv2K5-e52_fm-p-203" value="Исполнитель" style="shape=table;startSize=30;container=1;collapsible=1;childLayout=tableLayout;fixedRows=1;rowLines=0;fontStyle=1;align=center;resizeLast=1;" vertex="1" parent="1">
          <mxGeometry x="620" y="510" width="170" height="90" as="geometry" />
        </mxCell>
        <mxCell id="YTF2hIUv2K5-e52_fm-p-204" value="" style="shape=partialRectangle;collapsible=0;dropTarget=0;pointerEvents=0;fillColor=none;points=[[0,0.5],[1,0.5]];portConstraint=eastwest;top=0;left=0;right=0;bottom=1;" vertex="1" parent="YTF2hIUv2K5-e52_fm-p-203">
          <mxGeometry y="30" width="170" height="30" as="geometry" />
        </mxCell>
        <mxCell id="YTF2hIUv2K5-e52_fm-p-205" value="1" style="shape=partialRectangle;overflow=hidden;connectable=0;fillColor=none;top=0;left=0;bottom=0;right=0;fontStyle=1;" vertex="1" parent="YTF2hIUv2K5-e52_fm-p-204">
          <mxGeometry width="30" height="30" as="geometry">
            <mxRectangle width="30" height="30" as="alternateBounds" />
          </mxGeometry>
        </mxCell>
        <mxCell id="YTF2hIUv2K5-e52_fm-p-206" value="Попс" style="shape=partialRectangle;overflow=hidden;connectable=0;fillColor=none;top=0;left=0;bottom=0;right=0;align=left;spacingLeft=6;fontStyle=5;" vertex="1" parent="YTF2hIUv2K5-e52_fm-p-204">
          <mxGeometry x="30" width="140" height="30" as="geometry">
            <mxRectangle width="140" height="30" as="alternateBounds" />
          </mxGeometry>
        </mxCell>
        <mxCell id="YTF2hIUv2K5-e52_fm-p-207" value="" style="shape=partialRectangle;collapsible=0;dropTarget=0;pointerEvents=0;fillColor=none;points=[[0,0.5],[1,0.5]];portConstraint=eastwest;top=0;left=0;right=0;bottom=0;" vertex="1" parent="YTF2hIUv2K5-e52_fm-p-203">
          <mxGeometry y="60" width="170" height="30" as="geometry" />
        </mxCell>
        <mxCell id="YTF2hIUv2K5-e52_fm-p-208" value="2" style="shape=partialRectangle;overflow=hidden;connectable=0;fillColor=none;top=0;left=0;bottom=0;right=0;" vertex="1" parent="YTF2hIUv2K5-e52_fm-p-207">
          <mxGeometry width="30" height="30" as="geometry">
            <mxRectangle width="30" height="30" as="alternateBounds" />
          </mxGeometry>
        </mxCell>
        <mxCell id="YTF2hIUv2K5-e52_fm-p-209" value="Копс" style="shape=partialRectangle;overflow=hidden;connectable=0;fillColor=none;top=0;left=0;bottom=0;right=0;align=left;spacingLeft=6;" vertex="1" parent="YTF2hIUv2K5-e52_fm-p-207">
          <mxGeometry x="30" width="140" height="30" as="geometry">
            <mxRectangle width="140" height="30" as="alternateBounds" />
          </mxGeometry>
        </mxCell>
        <mxCell id="YTF2hIUv2K5-e52_fm-p-216" style="edgeStyle=orthogonalEdgeStyle;rounded=0;orthogonalLoop=1;jettySize=auto;html=1;" edge="1" parent="1" source="YTF2hIUv2K5-e52_fm-p-210" target="YTF2hIUv2K5-e52_fm-p-26">
          <mxGeometry relative="1" as="geometry" />
        </mxCell>
        <mxCell id="YTF2hIUv2K5-e52_fm-p-210" value="ПОП" style="rounded=0;whiteSpace=wrap;html=1;fillColor=none;" vertex="1" parent="1">
          <mxGeometry x="740" y="540" width="50" height="30" as="geometry" />
        </mxCell>
        <mxCell id="YTF2hIUv2K5-e52_fm-p-211" value="ПОП" style="rounded=0;whiteSpace=wrap;html=1;fillColor=none;" vertex="1" parent="1">
          <mxGeometry x="740" y="570" width="50" height="30" as="geometry" />
        </mxCell>
        <mxCell id="YTF2hIUv2K5-e52_fm-p-214" style="edgeStyle=orthogonalEdgeStyle;rounded=0;orthogonalLoop=1;jettySize=auto;html=1;exitX=1;exitY=0.5;exitDx=0;exitDy=0;" edge="1" parent="1" source="C-vyLk0tnHw3VtMMgP7b-24">
          <mxGeometry relative="1" as="geometry">
            <mxPoint x="620" y="460" as="targetPoint" />
            <Array as="points">
              <mxPoint x="450" y="470" />
              <mxPoint x="530" y="470" />
            </Array>
          </mxGeometry>
        </mxCell>
        <mxCell id="YTF2hIUv2K5-e52_fm-p-215" style="edgeStyle=orthogonalEdgeStyle;rounded=0;orthogonalLoop=1;jettySize=auto;html=1;entryX=0.045;entryY=0.033;entryDx=0;entryDy=0;entryPerimeter=0;" edge="1" parent="1" source="C-vyLk0tnHw3VtMMgP7b-27" target="YTF2hIUv2K5-e52_fm-p-207">
          <mxGeometry relative="1" as="geometry">
            <Array as="points">
              <mxPoint x="535" y="525" />
              <mxPoint x="535" y="570" />
              <mxPoint x="617" y="570" />
              <mxPoint x="617" y="571" />
            </Array>
          </mxGeometry>
        </mxCell>
        <mxCell id="YTF2hIUv2K5-e52_fm-p-217" style="edgeStyle=orthogonalEdgeStyle;rounded=0;orthogonalLoop=1;jettySize=auto;html=1;entryX=0.012;entryY=1.051;entryDx=0;entryDy=0;entryPerimeter=0;" edge="1" parent="1" source="YTF2hIUv2K5-e52_fm-p-211" target="YTF2hIUv2K5-e52_fm-p-87">
          <mxGeometry relative="1" as="geometry" />
        </mxCell>
        <mxCell id="YTF2hIUv2K5-e52_fm-p-218" style="edgeStyle=orthogonalEdgeStyle;rounded=0;orthogonalLoop=1;jettySize=auto;html=1;" edge="1" parent="1" source="YTF2hIUv2K5-e52_fm-p-87" target="YTF2hIUv2K5-e52_fm-p-153">
          <mxGeometry relative="1" as="geometry" />
        </mxCell>
        <mxCell id="YTF2hIUv2K5-e52_fm-p-219" value="" style="group" vertex="1" connectable="0" parent="1">
          <mxGeometry x="980" y="840" width="165" height="90" as="geometry" />
        </mxCell>
        <mxCell id="YTF2hIUv2K5-e52_fm-p-220" value="Треки" style="shape=table;startSize=30;container=1;collapsible=1;childLayout=tableLayout;fixedRows=1;rowLines=0;fontStyle=1;align=center;resizeLast=1;" vertex="1" parent="YTF2hIUv2K5-e52_fm-p-219">
          <mxGeometry width="165" height="90" as="geometry">
            <mxRectangle width="70" height="30" as="alternateBounds" />
          </mxGeometry>
        </mxCell>
        <mxCell id="YTF2hIUv2K5-e52_fm-p-221" value="" style="shape=partialRectangle;collapsible=0;dropTarget=0;pointerEvents=0;fillColor=none;points=[[0,0.5],[1,0.5]];portConstraint=eastwest;top=0;left=0;right=0;bottom=1;" vertex="1" parent="YTF2hIUv2K5-e52_fm-p-220">
          <mxGeometry y="30" width="165" height="30" as="geometry" />
        </mxCell>
        <mxCell id="YTF2hIUv2K5-e52_fm-p-222" value="1" style="shape=partialRectangle;overflow=hidden;connectable=0;fillColor=none;top=0;left=0;bottom=0;right=0;fontStyle=1;" vertex="1" parent="YTF2hIUv2K5-e52_fm-p-221">
          <mxGeometry width="30" height="30" as="geometry">
            <mxRectangle width="30" height="30" as="alternateBounds" />
          </mxGeometry>
        </mxCell>
        <mxCell id="YTF2hIUv2K5-e52_fm-p-223" value="Соло" style="shape=partialRectangle;overflow=hidden;connectable=0;fillColor=none;top=0;left=0;bottom=0;right=0;align=left;spacingLeft=6;fontStyle=5;" vertex="1" parent="YTF2hIUv2K5-e52_fm-p-221">
          <mxGeometry x="30" width="135" height="30" as="geometry">
            <mxRectangle width="135" height="30" as="alternateBounds" />
          </mxGeometry>
        </mxCell>
        <mxCell id="YTF2hIUv2K5-e52_fm-p-224" value="" style="shape=partialRectangle;collapsible=0;dropTarget=0;pointerEvents=0;fillColor=none;points=[[0,0.5],[1,0.5]];portConstraint=eastwest;top=0;left=0;right=0;bottom=0;" vertex="1" parent="YTF2hIUv2K5-e52_fm-p-220">
          <mxGeometry y="60" width="165" height="30" as="geometry" />
        </mxCell>
        <mxCell id="YTF2hIUv2K5-e52_fm-p-225" value="2" style="shape=partialRectangle;overflow=hidden;connectable=0;fillColor=none;top=0;left=0;bottom=0;right=0;" vertex="1" parent="YTF2hIUv2K5-e52_fm-p-224">
          <mxGeometry width="30" height="30" as="geometry">
            <mxRectangle width="30" height="30" as="alternateBounds" />
          </mxGeometry>
        </mxCell>
        <mxCell id="YTF2hIUv2K5-e52_fm-p-226" value="Коллаб" style="shape=partialRectangle;overflow=hidden;connectable=0;fillColor=none;top=0;left=0;bottom=0;right=0;align=left;spacingLeft=6;" vertex="1" parent="YTF2hIUv2K5-e52_fm-p-224">
          <mxGeometry x="30" width="135" height="30" as="geometry">
            <mxRectangle width="135" height="30" as="alternateBounds" />
          </mxGeometry>
        </mxCell>
        <mxCell id="YTF2hIUv2K5-e52_fm-p-227" value="12,5" style="rounded=0;whiteSpace=wrap;html=1;fillColor=none;" vertex="1" parent="YTF2hIUv2K5-e52_fm-p-219">
          <mxGeometry x="115" y="30" width="50" height="30" as="geometry" />
        </mxCell>
        <mxCell id="YTF2hIUv2K5-e52_fm-p-228" value="4,1" style="rounded=0;whiteSpace=wrap;html=1;fillColor=none;" vertex="1" parent="YTF2hIUv2K5-e52_fm-p-219">
          <mxGeometry x="115" y="60" width="50" height="30" as="geometry" />
        </mxCell>
        <mxCell id="YTF2hIUv2K5-e52_fm-p-231" value="" style="group" vertex="1" connectable="0" parent="1">
          <mxGeometry x="1115" y="600" width="165" height="90" as="geometry" />
        </mxCell>
        <mxCell id="YTF2hIUv2K5-e52_fm-p-232" value="Треки" style="shape=table;startSize=30;container=1;collapsible=1;childLayout=tableLayout;fixedRows=1;rowLines=0;fontStyle=1;align=center;resizeLast=1;" vertex="1" parent="YTF2hIUv2K5-e52_fm-p-231">
          <mxGeometry width="165" height="90" as="geometry" />
        </mxCell>
        <mxCell id="YTF2hIUv2K5-e52_fm-p-233" value="" style="shape=partialRectangle;collapsible=0;dropTarget=0;pointerEvents=0;fillColor=none;points=[[0,0.5],[1,0.5]];portConstraint=eastwest;top=0;left=0;right=0;bottom=1;" vertex="1" parent="YTF2hIUv2K5-e52_fm-p-232">
          <mxGeometry y="30" width="165" height="30" as="geometry" />
        </mxCell>
        <mxCell id="YTF2hIUv2K5-e52_fm-p-234" value="1" style="shape=partialRectangle;overflow=hidden;connectable=0;fillColor=none;top=0;left=0;bottom=0;right=0;fontStyle=1;" vertex="1" parent="YTF2hIUv2K5-e52_fm-p-233">
          <mxGeometry width="30" height="30" as="geometry">
            <mxRectangle width="30" height="30" as="alternateBounds" />
          </mxGeometry>
        </mxCell>
        <mxCell id="YTF2hIUv2K5-e52_fm-p-235" value="Соло" style="shape=partialRectangle;overflow=hidden;connectable=0;fillColor=none;top=0;left=0;bottom=0;right=0;align=left;spacingLeft=6;fontStyle=5;" vertex="1" parent="YTF2hIUv2K5-e52_fm-p-233">
          <mxGeometry x="30" width="135" height="30" as="geometry">
            <mxRectangle width="135" height="30" as="alternateBounds" />
          </mxGeometry>
        </mxCell>
        <mxCell id="YTF2hIUv2K5-e52_fm-p-236" value="" style="shape=partialRectangle;collapsible=0;dropTarget=0;pointerEvents=0;fillColor=none;points=[[0,0.5],[1,0.5]];portConstraint=eastwest;top=0;left=0;right=0;bottom=0;" vertex="1" parent="YTF2hIUv2K5-e52_fm-p-232">
          <mxGeometry y="60" width="165" height="30" as="geometry" />
        </mxCell>
        <mxCell id="YTF2hIUv2K5-e52_fm-p-237" value="2" style="shape=partialRectangle;overflow=hidden;connectable=0;fillColor=none;top=0;left=0;bottom=0;right=0;" vertex="1" parent="YTF2hIUv2K5-e52_fm-p-236">
          <mxGeometry width="30" height="30" as="geometry">
            <mxRectangle width="30" height="30" as="alternateBounds" />
          </mxGeometry>
        </mxCell>
        <mxCell id="YTF2hIUv2K5-e52_fm-p-238" value="Коллаб" style="shape=partialRectangle;overflow=hidden;connectable=0;fillColor=none;top=0;left=0;bottom=0;right=0;align=left;spacingLeft=6;" vertex="1" parent="YTF2hIUv2K5-e52_fm-p-236">
          <mxGeometry x="30" width="135" height="30" as="geometry">
            <mxRectangle width="135" height="30" as="alternateBounds" />
          </mxGeometry>
        </mxCell>
        <mxCell id="YTF2hIUv2K5-e52_fm-p-239" value="3,2" style="rounded=0;whiteSpace=wrap;html=1;fillColor=none;" vertex="1" parent="YTF2hIUv2K5-e52_fm-p-231">
          <mxGeometry x="115" y="30" width="50" height="30" as="geometry" />
        </mxCell>
        <mxCell id="YTF2hIUv2K5-e52_fm-p-240" value="4,1" style="rounded=0;whiteSpace=wrap;html=1;fillColor=none;" vertex="1" parent="YTF2hIUv2K5-e52_fm-p-231">
          <mxGeometry x="115" y="60" width="50" height="30" as="geometry" />
        </mxCell>
        <mxCell id="YTF2hIUv2K5-e52_fm-p-241" style="edgeStyle=orthogonalEdgeStyle;rounded=0;orthogonalLoop=1;jettySize=auto;html=1;entryX=0.5;entryY=0;entryDx=0;entryDy=0;" edge="1" parent="1" source="YTF2hIUv2K5-e52_fm-p-74" target="YTF2hIUv2K5-e52_fm-p-57">
          <mxGeometry relative="1" as="geometry" />
        </mxCell>
        <mxCell id="YTF2hIUv2K5-e52_fm-p-242" style="edgeStyle=orthogonalEdgeStyle;rounded=0;orthogonalLoop=1;jettySize=auto;html=1;entryX=0.013;entryY=1.039;entryDx=0;entryDy=0;entryPerimeter=0;" edge="1" parent="1" source="YTF2hIUv2K5-e52_fm-p-81" target="YTF2hIUv2K5-e52_fm-p-233">
          <mxGeometry relative="1" as="geometry" />
        </mxCell>
        <mxCell id="YTF2hIUv2K5-e52_fm-p-244" style="edgeStyle=orthogonalEdgeStyle;rounded=0;orthogonalLoop=1;jettySize=auto;html=1;entryX=-0.008;entryY=-0.053;entryDx=0;entryDy=0;entryPerimeter=0;" edge="1" parent="1" source="YTF2hIUv2K5-e52_fm-p-202" target="YTF2hIUv2K5-e52_fm-p-101">
          <mxGeometry relative="1" as="geometry">
            <Array as="points">
              <mxPoint x="890" y="475" />
              <mxPoint x="890" y="358" />
            </Array>
          </mxGeometry>
        </mxCell>
        <mxCell id="YTF2hIUv2K5-e52_fm-p-245" style="edgeStyle=orthogonalEdgeStyle;rounded=0;orthogonalLoop=1;jettySize=auto;html=1;entryX=0.515;entryY=1;entryDx=0;entryDy=0;entryPerimeter=0;" edge="1" parent="1" source="YTF2hIUv2K5-e52_fm-p-106" target="YTF2hIUv2K5-e52_fm-p-166">
          <mxGeometry relative="1" as="geometry" />
        </mxCell>
        <mxCell id="YTF2hIUv2K5-e52_fm-p-273" value="" style="group" vertex="1" connectable="0" parent="1">
          <mxGeometry x="860" y="20" width="165" height="90" as="geometry" />
        </mxCell>
        <mxCell id="YTF2hIUv2K5-e52_fm-p-274" value="Треки" style="shape=table;startSize=30;container=1;collapsible=1;childLayout=tableLayout;fixedRows=1;rowLines=0;fontStyle=1;align=center;resizeLast=1;" vertex="1" parent="YTF2hIUv2K5-e52_fm-p-273">
          <mxGeometry width="165" height="90" as="geometry" />
        </mxCell>
        <mxCell id="YTF2hIUv2K5-e52_fm-p-275" value="" style="shape=partialRectangle;collapsible=0;dropTarget=0;pointerEvents=0;fillColor=none;points=[[0,0.5],[1,0.5]];portConstraint=eastwest;top=0;left=0;right=0;bottom=1;" vertex="1" parent="YTF2hIUv2K5-e52_fm-p-274">
          <mxGeometry y="30" width="165" height="30" as="geometry" />
        </mxCell>
        <mxCell id="YTF2hIUv2K5-e52_fm-p-276" value="1" style="shape=partialRectangle;overflow=hidden;connectable=0;fillColor=none;top=0;left=0;bottom=0;right=0;fontStyle=1;" vertex="1" parent="YTF2hIUv2K5-e52_fm-p-275">
          <mxGeometry width="30" height="30" as="geometry">
            <mxRectangle width="30" height="30" as="alternateBounds" />
          </mxGeometry>
        </mxCell>
        <mxCell id="YTF2hIUv2K5-e52_fm-p-277" value="Соло" style="shape=partialRectangle;overflow=hidden;connectable=0;fillColor=none;top=0;left=0;bottom=0;right=0;align=left;spacingLeft=6;fontStyle=5;" vertex="1" parent="YTF2hIUv2K5-e52_fm-p-275">
          <mxGeometry x="30" width="135" height="30" as="geometry">
            <mxRectangle width="135" height="30" as="alternateBounds" />
          </mxGeometry>
        </mxCell>
        <mxCell id="YTF2hIUv2K5-e52_fm-p-278" value="" style="shape=partialRectangle;collapsible=0;dropTarget=0;pointerEvents=0;fillColor=none;points=[[0,0.5],[1,0.5]];portConstraint=eastwest;top=0;left=0;right=0;bottom=0;" vertex="1" parent="YTF2hIUv2K5-e52_fm-p-274">
          <mxGeometry y="60" width="165" height="30" as="geometry" />
        </mxCell>
        <mxCell id="YTF2hIUv2K5-e52_fm-p-279" value="2" style="shape=partialRectangle;overflow=hidden;connectable=0;fillColor=none;top=0;left=0;bottom=0;right=0;" vertex="1" parent="YTF2hIUv2K5-e52_fm-p-278">
          <mxGeometry width="30" height="30" as="geometry">
            <mxRectangle width="30" height="30" as="alternateBounds" />
          </mxGeometry>
        </mxCell>
        <mxCell id="YTF2hIUv2K5-e52_fm-p-280" value="Коллаб" style="shape=partialRectangle;overflow=hidden;connectable=0;fillColor=none;top=0;left=0;bottom=0;right=0;align=left;spacingLeft=6;" vertex="1" parent="YTF2hIUv2K5-e52_fm-p-278">
          <mxGeometry x="30" width="135" height="30" as="geometry">
            <mxRectangle width="135" height="30" as="alternateBounds" />
          </mxGeometry>
        </mxCell>
        <mxCell id="YTF2hIUv2K5-e52_fm-p-281" value="1,7" style="rounded=0;whiteSpace=wrap;html=1;fillColor=none;" vertex="1" parent="YTF2hIUv2K5-e52_fm-p-273">
          <mxGeometry x="115" y="30" width="50" height="30" as="geometry" />
        </mxCell>
        <mxCell id="YTF2hIUv2K5-e52_fm-p-282" value="5,2" style="rounded=0;whiteSpace=wrap;html=1;fillColor=none;" vertex="1" parent="YTF2hIUv2K5-e52_fm-p-273">
          <mxGeometry x="115" y="60" width="50" height="30" as="geometry" />
        </mxCell>
        <mxCell id="YTF2hIUv2K5-e52_fm-p-283" value="" style="group" vertex="1" connectable="0" parent="1">
          <mxGeometry x="1080" y="20" width="165" height="90" as="geometry" />
        </mxCell>
        <mxCell id="YTF2hIUv2K5-e52_fm-p-284" value="Треки" style="shape=table;startSize=30;container=1;collapsible=1;childLayout=tableLayout;fixedRows=1;rowLines=0;fontStyle=1;align=center;resizeLast=1;" vertex="1" parent="YTF2hIUv2K5-e52_fm-p-283">
          <mxGeometry width="165" height="90" as="geometry" />
        </mxCell>
        <mxCell id="YTF2hIUv2K5-e52_fm-p-285" value="" style="shape=partialRectangle;collapsible=0;dropTarget=0;pointerEvents=0;fillColor=none;points=[[0,0.5],[1,0.5]];portConstraint=eastwest;top=0;left=0;right=0;bottom=1;" vertex="1" parent="YTF2hIUv2K5-e52_fm-p-284">
          <mxGeometry y="30" width="165" height="30" as="geometry" />
        </mxCell>
        <mxCell id="YTF2hIUv2K5-e52_fm-p-286" value="1" style="shape=partialRectangle;overflow=hidden;connectable=0;fillColor=none;top=0;left=0;bottom=0;right=0;fontStyle=1;" vertex="1" parent="YTF2hIUv2K5-e52_fm-p-285">
          <mxGeometry width="30" height="30" as="geometry">
            <mxRectangle width="30" height="30" as="alternateBounds" />
          </mxGeometry>
        </mxCell>
        <mxCell id="YTF2hIUv2K5-e52_fm-p-287" value="Соло" style="shape=partialRectangle;overflow=hidden;connectable=0;fillColor=none;top=0;left=0;bottom=0;right=0;align=left;spacingLeft=6;fontStyle=5;" vertex="1" parent="YTF2hIUv2K5-e52_fm-p-285">
          <mxGeometry x="30" width="135" height="30" as="geometry">
            <mxRectangle width="135" height="30" as="alternateBounds" />
          </mxGeometry>
        </mxCell>
        <mxCell id="YTF2hIUv2K5-e52_fm-p-288" value="" style="shape=partialRectangle;collapsible=0;dropTarget=0;pointerEvents=0;fillColor=none;points=[[0,0.5],[1,0.5]];portConstraint=eastwest;top=0;left=0;right=0;bottom=0;" vertex="1" parent="YTF2hIUv2K5-e52_fm-p-284">
          <mxGeometry y="60" width="165" height="30" as="geometry" />
        </mxCell>
        <mxCell id="YTF2hIUv2K5-e52_fm-p-289" value="2" style="shape=partialRectangle;overflow=hidden;connectable=0;fillColor=none;top=0;left=0;bottom=0;right=0;" vertex="1" parent="YTF2hIUv2K5-e52_fm-p-288">
          <mxGeometry width="30" height="30" as="geometry">
            <mxRectangle width="30" height="30" as="alternateBounds" />
          </mxGeometry>
        </mxCell>
        <mxCell id="YTF2hIUv2K5-e52_fm-p-290" value="Коллаб" style="shape=partialRectangle;overflow=hidden;connectable=0;fillColor=none;top=0;left=0;bottom=0;right=0;align=left;spacingLeft=6;" vertex="1" parent="YTF2hIUv2K5-e52_fm-p-288">
          <mxGeometry x="30" width="135" height="30" as="geometry">
            <mxRectangle width="135" height="30" as="alternateBounds" />
          </mxGeometry>
        </mxCell>
        <mxCell id="YTF2hIUv2K5-e52_fm-p-291" value="1,5" style="rounded=0;whiteSpace=wrap;html=1;fillColor=none;" vertex="1" parent="YTF2hIUv2K5-e52_fm-p-283">
          <mxGeometry x="115" y="30" width="50" height="30" as="geometry" />
        </mxCell>
        <mxCell id="YTF2hIUv2K5-e52_fm-p-292" value="2,8" style="rounded=0;whiteSpace=wrap;html=1;fillColor=none;" vertex="1" parent="YTF2hIUv2K5-e52_fm-p-283">
          <mxGeometry x="115" y="60" width="50" height="30" as="geometry" />
        </mxCell>
        <mxCell id="YTF2hIUv2K5-e52_fm-p-293" style="edgeStyle=orthogonalEdgeStyle;rounded=0;orthogonalLoop=1;jettySize=auto;html=1;entryX=0.5;entryY=0;entryDx=0;entryDy=0;" edge="1" parent="1" source="YTF2hIUv2K5-e52_fm-p-115" target="YTF2hIUv2K5-e52_fm-p-274">
          <mxGeometry relative="1" as="geometry" />
        </mxCell>
        <mxCell id="YTF2hIUv2K5-e52_fm-p-294" style="edgeStyle=orthogonalEdgeStyle;rounded=0;orthogonalLoop=1;jettySize=auto;html=1;exitX=1;exitY=0.5;exitDx=0;exitDy=0;entryX=0.5;entryY=0;entryDx=0;entryDy=0;" edge="1" parent="1" source="YTF2hIUv2K5-e52_fm-p-117" target="YTF2hIUv2K5-e52_fm-p-284">
          <mxGeometry relative="1" as="geometry" />
        </mxCell>
        <mxCell id="YTF2hIUv2K5-e52_fm-p-295" style="edgeStyle=orthogonalEdgeStyle;rounded=0;orthogonalLoop=1;jettySize=auto;html=1;entryX=0.5;entryY=0;entryDx=0;entryDy=0;" edge="1" parent="1" source="YTF2hIUv2K5-e52_fm-p-104" target="YTF2hIUv2K5-e52_fm-p-172">
          <mxGeometry relative="1" as="geometry" />
        </mxCell>
      </root>
    </mxGraphModel>
  </diagram>
</mxfile>
